<svg width="78" height="15" viewBox="0 0 78 15" fill="none" xmlns="http://www.w3.org/2000/svg">
  <path d="M66.125 1.5625C66.125 2.4375 65.4375 3.125 64.5625 3.125C63.6875 3.125 63 2.4375 63 1.5625C63 0.6875 63.6875 0 64.5625 0C65.4375 0 66.125 0.6875 66.125 1.5625ZM66.125 4.375H63V14.375H66.125V4.375ZM71.125 4.375H68V14.375H71.125V9.125C71.125 6.1875 74.875 5.9375 74.875 9.125V14.375H78V8.0625C78 3.125 72.4375 3.3125 71.125 5.75V4.375Z" fill="#3D3D3D" />
  <path d="M1.875 5H0V7.5H1.875V15H5V7.5H7.25L7.5 5H5V3.9375C5 3.375 5.125 3.125 5.6875 3.125H7.5V0H5.125C2.875 0 1.875 1 1.875 2.875V5Z" fill="#3D3D3D" />
  <path d="M32.7174 14.1908C38.378 14.1908 41.4736 9.50111 41.4736 5.4346C41.4736 5.30135 41.4709 5.1688 41.4647 5.03675C42.0656 4.60239 42.588 4.06021 43 3.44331C42.4486 3.6883 41.8552 3.85327 41.2327 3.92765C41.868 3.54669 42.356 2.94378 42.5861 2.2252C41.9914 2.57784 41.3329 2.83408 40.632 2.97227C40.0702 2.37413 39.2704 2 38.3855 2C36.6858 2 35.3075 3.37831 35.3075 5.07718C35.3075 5.31876 35.3346 5.55351 35.3871 5.77887C32.8296 5.65041 30.5616 4.42565 29.0439 2.56368C28.7793 3.01833 28.627 3.54686 28.627 4.11037C28.627 5.17801 29.1703 6.12059 29.9966 6.67216C29.4918 6.65663 29.0175 6.51776 28.6027 6.2871C28.6021 6.2999 28.6021 6.31286 28.6021 6.32634C28.6021 7.81691 29.663 9.06129 31.071 9.3433C30.8126 9.41376 30.5406 9.45163 30.2598 9.45163C30.0616 9.45163 29.8688 9.43184 29.6813 9.39619C30.073 10.6187 31.2092 11.5086 32.5563 11.5337C31.5028 12.3592 30.1759 12.8511 28.7341 12.8511C28.4859 12.8511 28.2409 12.8369 28 12.8084C29.3619 13.6812 30.9791 14.1908 32.7174 14.1908Z" fill="#3D3D3D" />
</svg>